<?xml version="1.0" encoding="UTF-8" standalone="no"?>
<svg width="184px" height="48px" viewBox="0 0 184 48" version="1.1" xmlns="http://www.w3.org/2000/svg" xmlns:xlink="http://www.w3.org/1999/xlink">
    <!-- Generator: Sketch 3.6.1 (26313) - http://www.bohemiancoding.com/sketch -->
    <title>block__empty_container</title>
    <desc>Created with Sketch.</desc>
    <defs>
        <path id="path-1" d="M158,2 L158,48 L26,48 L26,2 L158,2 L158,2 Z"></path>
    </defs>
    <g id="Panels" stroke="none" stroke-width="1" fill="none" fill-rule="evenodd">
        <g id="04-Constructor/Constructor/Blocks" transform="translate(-72.000000, -96.000000)">
            <g id="Panel">
                <g id="Left-Panel" transform="translate(48.000000, 0.000000)">
                    <g id="EMPTY" transform="translate(24.000000, 71.000000)">
                        <g id="Container" transform="translate(0.000000, 25.000000)">
                            <mask id="mask-2" fill="white">
                                <use xlink:href="#path-1"></use>
                            </mask>
                            <g id="mask"></g>
                            <g id="diagonal" mask="url(#mask-2)" stroke-linecap="square" stroke="#184761">
                                <g transform="translate(-20.000000, 0.000000)" id="Line">
                                    <path d="M-2.22044605e-16,53 L53,0"></path>
                                    <path d="M5,53 L58,0"></path>
                                    <path d="M10,53 L63,0"></path>
                                    <path d="M15,53 L68,0"></path>
                                    <path d="M20,53 L73,0"></path>
                                    <path d="M25,53 L78,0"></path>
                                    <path d="M30,53 L83,0"></path>
                                    <path d="M35,53 L88,0"></path>
                                    <path d="M40,53 L93,0"></path>
                                    <path d="M45,53 L98,0"></path>
                                    <path d="M50,53 L103,0"></path>
                                    <path d="M55,53 L108,0"></path>
                                    <path d="M60,53 L113,0"></path>
                                    <path d="M65,53 L118,0"></path>
                                    <path d="M70,53 L123,0"></path>
                                    <path d="M75,53 L128,0"></path>
                                    <path d="M80,53 L133,0"></path>
                                    <path d="M85,53 L138,0"></path>
                                    <path d="M90,53 L143,0"></path>
                                    <path d="M95,53 L148,0"></path>
                                    <path d="M100,53 L153,0"></path>
                                    <path d="M105,53 L158,0"></path>
                                    <path d="M110,53 L163,0"></path>
                                    <path d="M115,53 L168,0"></path>
                                    <path d="M120,53 L173,0"></path>
                                    <path d="M125,53 L178,0"></path>
                                    <path d="M130,53 L183,0"></path>
                                    <path d="M135,53 L188,0"></path>
                                    <path d="M140,53 L193,0"></path>
                                    <path d="M145,53 L198,0"></path>
                                    <path d="M150,53 L203,0"></path>
                                    <path d="M155,53 L208,0"></path>
                                    <path d="M160,53 L213,0"></path>
                                    <path d="M165,53 L218,0"></path>
                                    <path d="M170,53 L223,0"></path>
                                    <path d="M175,53 L228,0"></path>
                                </g>
                            </g>
                            <g id="dashed-lines" transform="translate(24.000000, 1.000000)" stroke="#1B4F6B" stroke-width="2" stroke-linecap="square" stroke-dasharray="6,5">
                                <path d="M135,-1.02140518e-16 L135,46" id="dashed-line"></path>
                                <path d="M1,-1.02140518e-16 L1,46" id="dashed-line"></path>
                            </g>
                            <path d="M2.84217094e-14,3.00261497 C2.84217094e-14,1.34431651 1.34940591,0 3.00232559,0 L180.997674,0 C182.655813,0 184,1.33389258 184,3.00261497 L184,44.997385 C184,46.6556835 182.650594,48 180.997674,48 L3.00232559,48 C1.34418695,48 2.84217094e-14,46.6661074 2.84217094e-14,44.997385 L2.84217094e-14,3.00261497 Z M2,4.00492334 C2,2.89763476 2.9044524,2 3.99069802,2 L180.009302,2 C181.108734,2 182,2.89885511 182,4.00492334 L182,43.9950767 C182,45.1023652 181.095548,46 180.009302,46 L3.99069802,46 C2.89126586,46 2,45.1011449 2,43.9950767 L2,4.00492334 Z" id="border" fill="#34637B"></path>
                        </g>
                    </g>
                </g>
            </g>
        </g>
    </g>
</svg>