<?xml version="1.0" encoding="UTF-8" standalone="no"?>
<svg width="49px" height="59px" viewBox="0 0 49 59" version="1.1" xmlns="http://www.w3.org/2000/svg" xmlns:xlink="http://www.w3.org/1999/xlink">
    <!-- Generator: Sketch 3.7 (28169) - http://www.bohemiancoding.com/sketch -->
    <title>Group</title>
    <desc>Created with Sketch.</desc>
    <defs></defs>
    <g id="Panels" stroke="none" stroke-width="1" fill="none" fill-rule="evenodd">
        <g id="04-Constructor/Constructor/Widgets---Search-no-result" transform="translate(-140.000000, -133.000000)">
            <g id="Panel">
                <g id="Left-Panel" transform="translate(48.000000, 0.000000)">
                    <g id="Ghost" transform="translate(36.000000, 133.000000)">
                        <g id="horror" transform="translate(56.000000, 0.000000)">
                            <g id="Capa_1">
                                <g id="Group">
                                    <circle id="Oval-59" fill="#3B7694" cx="16.5" cy="22.5" r="1.5"></circle>
                                    <circle id="Oval-60" fill="#3B7694" transform="translate(32.500000, 22.500000) scale(-1, 1) translate(-32.500000, -22.500000) " cx="32.5" cy="22.5" r="1.5"></circle>
                                    <path d="M48.9133368,57.5578689 L48.87391,26.6364756 C48.87391,19.2960488 46.3507249,12.5307738 41.76891,7.5869383 C37.2348355,2.69437018 31.1122288,0 24.5289717,0 L24.440671,0.00012596401 L24.3448123,0 C17.7620591,0 11.6397044,2.69449614 7.10537789,7.58719023 C2.52343702,12.5312776 3.55271368e-15,19.2964267 3.55271368e-15,26.6364756 L3.55271368e-15,57.6285347 C3.55271368e-15,58.1502776 0.422861183,58.5732648 0.944730077,58.5732648 C4.19397172,58.5732648 7.15840874,56.9003368 8.83234447,54.2589974 C10.4977147,56.9003368 13.4341877,58.5732648 16.6452622,58.5732648 C19.855581,58.5732648 22.7912982,56.9015964 24.4567943,54.2612648 C26.1221645,56.9015964 29.0578817,58.5732648 32.2682005,58.5732648 C35.4792751,58.5732648 38.415874,56.9002108 40.0811183,54.2589974 C41.755054,56.9003368 44.719491,58.5732648 47.9687326,58.5732648 C47.9694884,58.5731388 47.9704961,58.5732648 47.9712519,58.5732648 C48.4931208,58.5732648 48.915982,58.1502776 48.915982,57.6285347 C48.915982,57.6047275 48.9151003,57.5811722 48.9133368,57.5578689 L48.9133368,57.5578689 Z M40.9704242,51.7937558 C40.8367763,51.4164936 40.4800463,51.1643136 40.0798586,51.1643136 C39.679671,51.1643136 39.3228149,51.4164936 39.1892931,51.7937558 C38.1537429,54.7186401 35.3722057,56.6838046 32.2682005,56.6838046 C29.1641954,56.6838046 26.3827841,54.7186401 25.3473599,51.7937558 C25.2137121,51.4164936 24.856856,51.1643136 24.4567943,51.1643136 C24.0567326,51.1643136 23.6997506,51.4164936 23.5662288,51.7937558 C22.5305527,54.7186401 19.7492674,56.6838046 16.6452622,56.6838046 C13.5412571,56.6838046 10.7598458,54.7186401 9.72429563,51.7937558 C9.59064781,51.4164936 9.23379177,51.1643136 8.83373008,51.1643136 C8.43341645,51.1643136 8.07668638,51.4164936 7.94316452,51.7937558 C7.01241645,54.4226247 4.64643445,56.2761851 1.88946015,56.6244756 L1.88946015,26.6364756 C1.88933419,12.7596504 11.752946,1.88946015 24.3448123,1.88946015 L24.4407969,1.88958612 L24.5289717,1.88946015 C37.120838,1.88946015 46.9844499,12.7596504 46.9844499,26.6376093 L47.0228689,56.6242237 C44.2666504,56.2755553 41.9009203,54.4221208 40.9704242,51.7937558 L40.9704242,51.7937558 Z" id="Shape" fill="#1B4F6B"></path>
                                    <path d="M26.5360063,36.7627967 C26.5360063,37.5198979 25.4493859,38.1358308 24.1137185,38.1358308 C22.7780511,38.1358308 21.6914308,37.5198979 21.6914308,36.7627967 C21.6914308,36.3415295 21.0890886,36 20.3457154,36 C19.6023422,36 19,36.3415295 19,36.7627967 C19,38.3611101 21.2939962,39.6614242 24.1137185,39.6614242 C26.9334409,39.6614242 29.2274371,38.3611101 29.2274371,36.7627967 C29.2274371,36.3415295 28.6250949,36 27.8817217,36 C27.1383485,36 26.5360063,36.3415295 26.5360063,36.7627967 Z" id="Shape" fill="#C2445C" transform="translate(24.113719, 37.830712) scale(1, -1) translate(-24.113719, -37.830712) "></path>
                                </g>
                            </g>
                        </g>
                    </g>
                </g>
            </g>
        </g>
    </g>
</svg>