<?xml version="1.0" encoding="UTF-8" standalone="no"?>
<svg width="183px" height="68px" viewBox="0 0 183 68" version="1.1" xmlns="http://www.w3.org/2000/svg" xmlns:xlink="http://www.w3.org/1999/xlink">
    <!-- Generator: Sketch 39.1 (31720) - http://www.bohemiancoding.com/sketch -->
    <title>Tip</title>
    <desc>Created with Sketch.</desc>
    <defs>
        <rect id="path-1" x="0" y="7" width="183" height="48" rx="3"></rect>
        <mask id="mask-2" maskContentUnits="userSpaceOnUse" maskUnits="objectBoundingBox" x="0" y="0" width="183" height="48" fill="white">
            <use xlink:href="#path-1"></use>
        </mask>
        <rect id="path-3" x="0" y="0" width="32.24" height="31" rx="15.5"></rect>
        <mask id="mask-4" maskContentUnits="userSpaceOnUse" maskUnits="objectBoundingBox" x="-2" y="-2" width="36.24" height="35">
            <rect x="-2" y="-2" width="36.24" height="35" fill="white"></rect>
            <use xlink:href="#path-3" fill="black"></use>
        </mask>
        <mask id="mask-6" maskContentUnits="userSpaceOnUse" maskUnits="objectBoundingBox" x="-2" y="-2" width="36.24" height="35">
            <rect x="-2" y="-2" width="36.24" height="35" fill="white"></rect>
            <use xlink:href="#path-3" fill="black"></use>
        </mask>
    </defs>
    <g id="Panels" stroke="none" stroke-width="1" fill="none" fill-rule="evenodd">
        <g id="04-Constructor/Constructor/Blocks/Add-to-favorite-no-blocks" transform="translate(-71.000000, -190.000000)">
            <g id="Panel" transform="translate(-2.000000, 0.000000)">
                <g id="Left-Panel" transform="translate(48.000000, 0.000000)">
                    <g id="FAVOIRITE" transform="translate(22.000000, 119.000000)">
                        <g id="Content" transform="translate(2.000000, 34.000000)">
                            <g id="Tip" transform="translate(1.000000, 39.000000)">
                                <path d="M51.9469829,45.1087432 C52.4839376,45.3468705 52.861962,45.7277887 53.0247177,46.3370014 C52.9304724,46.4058318 52.8233597,46.4678218 52.7318966,46.555463 C52.6386946,46.6448142 52.5611422,46.7598164 52.4665492,46.8761012 C52.3702173,46.8141112 52.2860573,46.775207 52.2151125,46.713217 C51.3265638,45.9334247 50.3009942,45.5401085 49.3251556,45.0104141 C49.0514617,44.8620655 48.7791589,44.7098692 48.5065083,44.5589554 C48.2954128,44.4422431 48.1729983,44.2797864 48.1698684,43.9527354 C48.1636085,43.2982058 48.2508984,42.7445704 48.6024925,42.1960652 C49.1373605,41.3636883 49.5592038,40.4188743 50.0436455,39.5420355 C50.1914471,39.2744095 50.3222081,38.9939579 50.4724441,38.729752 C50.6522405,38.4133889 51.0650418,38.3368632 51.3369968,38.562165 C51.4409796,38.6480961 51.5286173,38.7601057 51.6183416,38.8550146 C51.6548573,39.2474759 51.5122722,39.5103992 51.2580533,39.7271507 C51.1290312,39.8370227 51.0177453,39.9913566 50.9328897,40.1529583 C50.6084216,40.7668737 50.3034286,41.3991723 50.0050432,42.0391663 C49.9664408,42.1221047 49.9716574,42.2358244 49.9528779,42.359377 C50.0457321,42.3623696 50.099984,42.3811804 50.1444984,42.3640797 C50.9175879,42.0720851 51.6882431,41.7668375 52.4714179,41.5163121 C53.1154853,41.3111037 53.7873742,41.2179048 54.4206608,40.9891829 C55.0640327,40.7570408 55.7122733,40.5826135 56.3789457,40.4782992 C57.1489053,40.3577393 57.9136484,40.2046879 58.6815214,40.0905407 C59.0070328,40.0422312 59.3301099,39.9755385 59.6549257,39.9250914 C59.8124649,39.9007229 59.9689607,39.8566885 60.127891,39.8596812 C61.4612357,39.8870423 62.7737143,39.8280449 64.0910617,39.8455731 C64.9858703,39.8571161 65.8813744,39.8981578 66.782095,40.0165801 C67.0460513,40.0512091 67.3145287,40.1311549 67.5812672,40.1999852 C67.6883799,40.2273464 67.7972315,40.2743733 67.9026053,40.2897639 C68.7800255,40.4197293 69.65988,40.5881713 70.5459943,40.8493846 C71.4352386,41.1114529 72.3300471,41.475698 73.2255512,41.8797022 C74.0866262,42.2678882 74.9501356,42.7120791 75.8157316,43.2105647 C76.5161375,43.6137139 77.2168912,44.0138704 77.9211226,44.511501 C78.4587728,44.8924192 78.9988574,45.3592685 79.5392898,45.8214151 C80.1548402,46.3489719 80.7710861,46.8914919 81.3890709,47.5019871 C81.8975085,48.0043204 82.4094239,48.6096854 82.9175138,49.1295469 C83.7851964,50.0012554 84.670963,51.4441276 85.5299513,51.9956254 C86.0199573,52.2718018 86.4181523,53.3162274 86.323907,54.152452 C86.2752194,54.5829623 86.1183758,54.5132769 85.7267884,53.9711845 C85.1327996,53.1447929 84.5388109,52.3402046 83.9479521,51.5907661 C82.6139118,49.9003612 81.2889135,48.4258528 79.973305,47.1702334 C79.1887391,46.4220774 78.4083464,45.7641277 77.6314314,45.1818487 C77.4165104,45.0223846 77.2106314,44.9745026 76.9967537,44.827864 C76.0692549,44.1938553 75.1431472,43.6214092 74.2232993,43.1537048 C73.6348748,42.8535874 73.053058,42.6270031 72.4674157,42.3828905 C71.4880994,41.9758936 70.511913,41.646705 69.5367699,41.3748038 C68.3863514,41.0541655 67.2355852,40.8053503 66.093861,40.6852178 C65.2133109,40.593729 64.3456283,40.6206626 63.4685559,40.6091196 C62.4287279,40.5950116 61.3819445,40.5851787 60.3407253,40.6557191 C60.2356992,40.6629869 60.1268477,40.6612768 60.0280814,40.6916306 C59.075891,40.9814875 58.0666666,40.9519888 57.0821338,41.1093153 C56.5110977,41.2012316 55.9445827,41.3397473 55.3850231,41.5060517 C54.4648274,41.7792355 53.5550648,42.1114167 52.6435634,42.4410329 C51.8638662,42.7210569 51.157896,43.3135964 50.3834154,43.6167065 C50.1858828,43.6940872 49.9987833,43.8107995 49.8071628,43.9104111 C49.8109883,43.967271 49.8148137,44.0232758 49.8186392,44.0797081 C50.5277393,44.4225773 51.2302319,44.7902425 51.9469829,45.1087432 Z" id="Shape" stroke="#4990E2" fill="#4990E2" transform="translate(67.253684, 46.432607) rotate(-225.000000) translate(-67.253684, -46.432607) "></path>
                                <g id="Block" transform="translate(0.000000, 11.000000)">
                                    <path d="M63,0.0059161954 L63,0 L118.644994,0 L118.644994,0.00219257638 C118.985251,0.0257761406 121.153914,0.301340985 121.645002,3.49999997 C122.182354,7 125.048232,6.99999997 125.048232,6.99999997 L118.644994,7 L118.644994,8 L63,8 L63,7 L56.6000061,6.99999997 C56.6000061,6.99999997 59.4844504,7 60.0252838,3.49999997 C60.5014966,0.418190918 62.5450456,0.0498103026 63,0.0059161954 Z" id="Combined-Shape" fill="#4990E2"></path>
                                    <use id="Rectangle-1757" stroke="#4990E2" mask="url(#mask-2)" stroke-width="6" xlink:href="#path-1"></use>
                                </g>
                                <g id="Magnifier" transform="translate(80.000000, 0.000000)">
                                    <mask id="mask-5" fill="white">
                                        <use xlink:href="#path-3"></use>
                                    </mask>
                                    <g id="Rectangle-5" stroke="#FFCC00" mask="url(#mask-4)" stroke-width="4">
                                        <use mask="url(#mask-6)" xlink:href="#path-3"></use>
                                    </g>
                                    <rect id="Rectangle-6" fill="#4990E2" mask="url(#mask-5)" x="-2" y="4.8999939" width="36" height="22.1000061"></rect>
                                </g>
                                <g id="Icn-star" transform="translate(87.000000, 7.000000)">
                                    <rect id="icon-grid" opacity="0.601096082" x="0" y="0" width="16" height="16"></rect>
                                    <g id="star" transform="translate(3.000000, 2.000000)" stroke="#FFFFFF" stroke-width="2" stroke-linecap="round" stroke-linejoin="round">
                                        <path d="M9.43348881,4.39240253 C8.89392941,4.29038225 8.23506213,3.80875483 7.97375566,3.33807127 L6.23161042,0.199996948 L4.50894288,3.34883811 C4.24529491,3.83075673 3.58339249,4.30892393 3.0545998,4.41215781 L-0.470891441,5.10042408 L1.9919288,7.71254632 C2.36885443,8.11232208 2.61912083,8.88925148 2.55388247,9.42355847 L2.11893455,12.9858139 L5.36300004,11.4514308 C5.85949239,11.2165991 6.66353938,11.208882 7.17070662,11.4395694 L10.4499514,12.9311493 L9.96625905,9.40564417 C9.89115249,8.85821237 10.1416953,8.08043239 10.5091449,7.68635258 L12.958953,5.05899985 L9.43348881,4.39240253 Z" id="Fill-1"></path>
                                    </g>
                                </g>
                            </g>
                        </g>
                    </g>
                </g>
            </g>
        </g>
    </g>
</svg>